<svg width="101" height="78" viewBox="0 0 101 78" fill="none" xmlns="http://www.w3.org/2000/svg">
<g id="home">
<path id="Vector" d="M48.6779 20.1753L16.6693 46.5382V74.9913C16.6693 75.728 16.9619 76.4346 17.4829 76.9555C18.0038 77.4764 18.7103 77.7691 19.447 77.7691L38.9019 77.7187C39.6362 77.7151 40.3392 77.4208 40.8571 76.9003C41.375 76.3797 41.6658 75.6753 41.6658 74.941V58.3247C41.6658 57.5879 41.9584 56.8814 42.4794 56.3605C43.0003 55.8395 43.7068 55.5469 44.4435 55.5469H55.5547C56.2914 55.5469 56.9979 55.8395 57.5188 56.3605C58.0398 56.8814 58.3324 57.5879 58.3324 58.3247V74.9288C58.3313 75.2943 58.4023 75.6565 58.5414 75.9945C58.6805 76.3325 58.8849 76.6398 59.1429 76.8986C59.401 77.1575 59.7076 77.3629 60.0452 77.503C60.3828 77.6431 60.7447 77.7153 61.1102 77.7153L80.5581 77.7691C81.2948 77.7691 82.0014 77.4764 82.5223 76.9555C83.0432 76.4346 83.3359 75.728 83.3359 74.9913V46.5191L51.3342 20.1753C50.9579 19.8721 50.4893 19.7067 50.006 19.7067C49.5228 19.7067 49.0541 19.8721 48.6779 20.1753V20.1753ZM99.2387 38.0937L84.7248 26.1302V2.08333C84.7248 1.5308 84.5053 1.0009 84.1146 0.610195C83.7239 0.219494 83.194 0 82.6414 0H72.9192C72.3667 0 71.8368 0.219494 71.4461 0.610195C71.0554 1.0009 70.8359 1.5308 70.8359 2.08333V14.6892L55.2925 1.90104C53.8009 0.673575 51.9291 0.00245372 49.9974 0.00245372C48.0656 0.00245372 46.1939 0.673575 44.7022 1.90104L0.756074 38.0937C0.545115 38.2681 0.370579 38.4823 0.242441 38.7242C0.114302 38.966 0.0350708 39.2307 0.00927457 39.5032C-0.0165216 39.7757 0.0116227 40.0506 0.0920993 40.3122C0.172576 40.5738 0.303808 40.8169 0.478296 41.0278L4.90538 46.4097C5.07939 46.6213 5.29343 46.7965 5.53523 46.9253C5.77704 47.054 6.04187 47.1339 6.31456 47.1601C6.58725 47.1864 6.86245 47.1587 7.1244 47.0785C7.38635 46.9983 7.62991 46.8672 7.84114 46.6927L48.6779 13.0573C49.0541 12.754 49.5228 12.5887 50.006 12.5887C50.4893 12.5887 50.9579 12.754 51.3342 13.0573L92.1727 46.6927C92.3836 46.8672 92.6267 46.9984 92.8883 47.0789C93.1499 47.1594 93.4248 47.1875 93.6973 47.1617C93.9697 47.1359 94.2345 47.0567 94.4763 46.9286C94.7181 46.8004 94.9324 46.6259 95.1067 46.4149L99.5338 41.033C99.7081 40.8209 99.8388 40.5765 99.9183 40.3137C99.9978 40.051 100.025 39.7751 99.9972 39.502C99.9698 39.2289 99.8887 38.9639 99.7585 38.7222C99.6283 38.4805 99.4516 38.2669 99.2387 38.0937V38.0937Z" fill="#ADB5BD"/>
</g>
</svg>
