<svg width="98" height="98" viewBox="0 0 98 98" fill="none" xmlns="http://www.w3.org/2000/svg">
<g id="retry">
<path id="Vector" d="M49.0889 0.562518C62.032 0.58576 73.7836 5.68615 82.4598 13.9776L89.4353 7.00197C92.3885 4.04904 97.4375 6.14045 97.4375 10.3166V36.5C97.4375 39.0889 95.3389 41.1875 92.75 41.1875H66.5666C62.3904 41.1875 60.299 36.1385 63.252 33.1854L71.4063 25.0311C65.3781 19.3867 57.5779 16.2602 49.291 16.1887C31.2445 16.0328 16.0326 30.6373 16.1887 49.2828C16.3367 66.9705 30.6766 81.8125 49 81.8125C57.0326 81.8125 64.6244 78.9457 70.6072 73.6961C71.5336 72.8834 72.9326 72.9328 73.8041 73.8041L81.5506 81.5506C82.5021 82.5022 82.4551 84.0535 81.4564 84.9555C72.8676 92.7135 61.4855 97.4375 49 97.4375C22.2488 97.4375 0.562695 75.7514 0.5625 49.0004C0.562305 22.2799 22.3684 0.514666 49.0889 0.562518Z" fill="#ADB5BD"/>
</g>
</svg>
